<svg viewBox="0 0 16 16" xmlns="http://www.w3.org/2000/svg" xmlns:xlink="http://www.w3.org/1999/xlink"><style>:root&gt;svg{display:none}:root&gt;svg:target{display:block}</style><svg fill="none" viewBox="0 0 16 16" id="facebook" xmlns="http://www.w3.org/2000/svg"><path d="M16 8a8 8 0 10-9.25 7.903v-5.59H4.719V8H6.75V6.238c0-2.005 1.194-3.113 3.022-3.113.875 0 1.79.156 1.79.156V5.25h-1.008c-.994 0-1.304.617-1.304 1.25V8h2.219l-.355 2.313H9.25v5.59A8.002 8.002 0 0016 8z" fill="#1877F2"/><path d="M11.114 10.313L11.47 8H9.25V6.5c0-.633.31-1.25 1.304-1.25h1.008V3.281s-.915-.156-1.79-.156c-1.828 0-3.022 1.107-3.022 3.113V8H4.719v2.313H6.75v5.59a8.062 8.062 0 002.5 0v-5.59h1.864z" fill="#fff"/></svg><svg fill="none" viewBox="0 0 16 16" id="google" xmlns="http://www.w3.org/2000/svg"><g clip-path="url(#bclip0_18_36)"><path d="M3.546 9.669l-.557 2.079-2.036.043A7.964 7.964 0 010 8a7.96 7.96 0 01.894-3.68l1.813.333.794 1.801a4.755 4.755 0 00.045 3.215z" fill="#FBBB00"/><path d="M15.86 6.505a8.007 8.007 0 01-.035 3.165 7.999 7.999 0 01-2.817 4.569l-2.283-.117-.323-2.017a4.768 4.768 0 002.052-2.435H8.176V6.505h7.684z" fill="#518EF8"/><path d="M13.008 14.238A7.966 7.966 0 018 16a7.999 7.999 0 01-7.046-4.21l2.592-2.12a4.757 4.757 0 006.856 2.436l2.606 2.133z" fill="#28B446"/><path d="M13.106 1.842l-2.591 2.121A4.758 4.758 0 003.5 6.454L.895 4.322A7.998 7.998 0 018 0c1.941 0 3.72.691 5.106 1.842z" fill="#F14336"/></g><defs><clipPath id="bclip0_18_36"><path fill="#fff" d="M0 0h16v16H0z"/></clipPath></defs></svg><svg fill="none" viewBox="0 0 16 16" id="inst" xmlns="http://www.w3.org/2000/svg"><path d="M8.003 0c-3.34 0-4.317.003-4.507.02-.685.056-1.112.164-1.577.396A3.195 3.195 0 001 1.089C.493 1.616.185 2.264.074 3.035c-.055.374-.07.45-.073 2.362-.002.637 0 1.475 0 2.6 0 3.338.003 4.314.02 4.504.055.667.16 1.087.38 1.546a3.37 3.37 0 002.185 1.784c.33.085.694.132 1.162.154.198.009 2.217.015 4.238.015 2.02 0 4.04-.002 4.234-.012.541-.026.856-.068 1.203-.158a3.35 3.35 0 002.184-1.788c.218-.448.328-.884.378-1.516.01-.138.015-2.336.015-4.531 0-2.196-.005-4.39-.016-4.527-.05-.643-.16-1.075-.384-1.532a3.173 3.173 0 00-.685-.938c-.53-.506-1.177-.813-1.948-.925-.374-.054-.448-.07-2.36-.073H8.002z" fill="url(#cpaint0_radial_18_32)"/><path d="M8.003 0c-3.34 0-4.317.003-4.507.02-.685.056-1.112.164-1.577.396A3.195 3.195 0 001 1.089C.493 1.616.185 2.264.074 3.035c-.055.374-.07.45-.073 2.362-.002.637 0 1.475 0 2.6 0 3.338.003 4.314.02 4.504.055.667.16 1.087.38 1.546a3.37 3.37 0 002.185 1.784c.33.085.694.132 1.162.154.198.009 2.217.015 4.238.015 2.02 0 4.04-.002 4.234-.012.541-.026.856-.068 1.203-.158a3.35 3.35 0 002.184-1.788c.218-.448.328-.884.378-1.516.01-.138.015-2.336.015-4.531 0-2.196-.005-4.39-.016-4.527-.05-.643-.16-1.075-.384-1.532a3.173 3.173 0 00-.685-.938c-.53-.506-1.177-.813-1.948-.925-.374-.054-.448-.07-2.36-.073H8.002z" fill="url(#cpaint1_radial_18_32)"/><path d="M7.999 2.092c-1.604 0-1.806.007-2.436.036-.629.029-1.058.128-1.433.274a2.893 2.893 0 00-1.047.682 2.9 2.9 0 00-.681 1.046c-.147.376-.246.805-.275 1.434-.028.63-.035.832-.035 2.436 0 1.605.007 1.806.035 2.436.03.629.129 1.058.275 1.434.15.389.353.718.681 1.047a2.9 2.9 0 001.046.681c.376.147.805.246 1.434.275.63.029.831.036 2.435.036s1.805-.007 2.435-.036c.629-.029 1.059-.128 1.434-.274a2.89 2.89 0 001.046-.682 2.9 2.9 0 00.682-1.047c.145-.376.245-.805.274-1.434.029-.63.036-.831.036-2.436 0-1.604-.007-1.805-.036-2.436-.03-.629-.129-1.058-.274-1.434a2.9 2.9 0 00-.682-1.046 2.886 2.886 0 00-1.046-.682c-.377-.146-.806-.245-1.435-.274-.63-.029-.83-.036-2.435-.036h.002zm-.53 1.065h.53c1.577 0 1.764.006 2.387.034.575.026.888.123 1.096.203.276.108.472.236.679.442.207.207.335.404.442.68.08.208.177.52.203 1.096.029.623.035.81.035 2.387s-.006 1.764-.035 2.387c-.026.576-.122.889-.203 1.097a1.826 1.826 0 01-.442.678 1.827 1.827 0 01-.679.442c-.208.081-.52.177-1.096.204-.623.028-.81.034-2.387.034s-1.764-.006-2.387-.034c-.576-.027-.888-.123-1.097-.204a1.83 1.83 0 01-.679-.442 1.832 1.832 0 01-.442-.679c-.08-.208-.177-.52-.203-1.097-.029-.623-.034-.81-.034-2.387 0-1.578.005-1.764.034-2.387.026-.576.122-.889.203-1.097a1.83 1.83 0 01.442-.68c.207-.206.404-.334.68-.442.207-.08.52-.177 1.096-.203.545-.025.756-.032 1.857-.033v.001zm3.683.981a.709.709 0 100 1.418.709.709 0 000-1.418zm-3.153.828A3.034 3.034 0 108 11.034a3.034 3.034 0 000-6.068zm0 1.065a1.97 1.97 0 110 3.938 1.97 1.97 0 010-3.938z" fill="#fff"/><defs><radialGradient id="cpaint0_radial_18_32" cx="0" cy="0" r="1" gradientUnits="userSpaceOnUse" gradientTransform="matrix(0 -15.8572 14.7484 0 4.25 17.232)"><stop stop-color="#FD5"/><stop offset=".1" stop-color="#FD5"/><stop offset=".5" stop-color="#FF543E"/><stop offset="1" stop-color="#C837AB"/></radialGradient><radialGradient id="cpaint1_radial_18_32" cx="0" cy="0" r="1" gradientUnits="userSpaceOnUse" gradientTransform="matrix(1.39122 6.95036 -28.6497 5.73466 -2.68 1.152)"><stop stop-color="#3771C8"/><stop offset=".128" stop-color="#3771C8"/><stop offset="1" stop-color="#60F" stop-opacity="0"/></radialGradient></defs></svg></svg>